<?xml version="1.0" encoding="UTF-8" standalone="no"?>
<!-- Created with Inkscape (http://www.inkscape.org/) -->

<svg
   xmlns:dc="http://purl.org/dc/elements/1.1/"
   xmlns:cc="http://creativecommons.org/ns#"
   xmlns:rdf="http://www.w3.org/1999/02/22-rdf-syntax-ns#"
   xmlns:svg="http://www.w3.org/2000/svg"
   xmlns="http://www.w3.org/2000/svg"
   xmlns:sodipodi="http://sodipodi.sourceforge.net/DTD/sodipodi-0.dtd"
   xmlns:inkscape="http://www.inkscape.org/namespaces/inkscape"
   width="42.023273mm"
   height="7.8548198mm"
   viewBox="0 0 42.023273 7.8548198"
   version="1.1"
   id="svg8"
   inkscape:version="0.92.4 (5da689c313, 2019-01-14)"
   sodipodi:docname="5079ml.svg">
  <defs
     id="defs2" />
  <sodipodi:namedview
     id="base"
     pagecolor="#ffffff"
     bordercolor="white"
     borderopacity="1.0"
     inkscape:pageopacity="0.0"
     inkscape:pageshadow="2"
     inkscape:zoom="5.6"
     inkscape:cx="66.551357"
     inkscape:cy="-5.0047567"
     inkscape:document-units="mm"
     inkscape:current-layer="layer1"
     showgrid="false"
     fit-margin-top="0"
     fit-margin-left="0"
     fit-margin-right="0"
     fit-margin-bottom="0"
     inkscape:window-width="1920"
     inkscape:window-height="1001"
     inkscape:window-x="-9"
     inkscape:window-y="-9"
     inkscape:window-maximized="1" />
  <metadata
     id="metadata5">
    <rdf:RDF>
      <cc:Work
         rdf:about="">
        <dc:format>image/svg+xml</dc:format>
        <dc:type
           rdf:resource="http://purl.org/dc/dcmitype/StillImage" />
        <dc:title></dc:title>
      </cc:Work>
    </rdf:RDF>
  </metadata>
  <g
     inkscape:label="Layer 1"
     inkscape:groupmode="layer"
     id="layer1"
     transform="translate(0.05761,-0.02101)">
    <path
       inkscape:connector-curvature="0"
       id="path16"
       style="font-style:normal;font-variant:normal;font-weight:normal;font-stretch:normal;font-size:10.58333302px;line-height:1.25;font-family:'Cascadia Code';-inkscape-font-specification:'Cascadia Code, Normal';font-variant-ligatures:normal;font-variant-caps:normal;font-variant-numeric:normal;font-feature-settings:normal;text-align:start;letter-spacing:0px;word-spacing:0px;writing-mode:lr-tb;text-anchor:start;fill:#FFF;fill-opacity:1;stroke:none;stroke-width:0.26458332"
       d="m 2.629564,2.98721 q 1.14205,0 1.71049,0.61495 0.573609,0.60978 0.573609,1.80351 0,0.78031 -0.304891,1.33842 Q 4.309048,7.29703 3.730272,7.58641 3.151496,7.8758 2.329841,7.8758 1.575365,7.8758 1.03793,7.62259 0.500495,7.36937 0.221443,6.88361 -0.05761,6.39786 -0.05761,5.71573 h 1.105876 q 0,0.57361 0.335896,0.894 0.335897,0.31523 0.956014,0.31523 0.7028,0 1.085205,-0.39791 0.382406,-0.39791 0.382406,-1.12138 0,-1.48828 -1.539958,-1.48828 -0.697631,0 -1.302246,0.34106 H 0.386807 L 0.49016,0.4344 H 4.448575 V 1.39558 H 1.523689 L 1.420336,3.19909 Q 1.9371,2.98721 2.629564,2.98721 Z" />
    <path
       inkscape:connector-curvature="0"
       id="path18"
       style="font-style:normal;font-variant:normal;font-weight:normal;font-stretch:normal;font-size:10.58333302px;line-height:1.25;font-family:'Cascadia Code';-inkscape-font-specification:'Cascadia Code, Normal';font-variant-ligatures:normal;font-variant-caps:normal;font-variant-numeric:normal;font-feature-settings:normal;text-align:start;letter-spacing:0px;word-spacing:0px;writing-mode:lr-tb;text-anchor:start;fill:#FFF;fill-opacity:1;stroke:none;stroke-width:0.26458332"
       d="m 8.562019,7.8758 q -2.501139,0 -2.501139,-3.7207 0,-3.82406 2.501139,-3.82406 2.501139,0 2.501139,3.82406 0,3.7207 -2.501139,3.7207 z m 0,-0.95084 q 1.395263,0 1.395263,-2.76986 0,-2.87321 -1.395263,-2.87321 -1.395264,0 -1.395264,2.87321 0,2.76986 1.395264,2.76986 z m 0.04134,-1.99471 q -0.206706,0 -0.382406,-0.10336 Q 8.045254,4.72354 7.941901,4.54784 7.838548,4.36697 7.838548,4.1551 q 0,-0.20671 0.103353,-0.38241 0.103353,-0.1757 0.279052,-0.27905 0.1757,-0.10335 0.382406,-0.10335 0.211873,0 0.387573,0.10335 0.180868,0.10335 0.284221,0.27905 0.103352,0.1757 0.103352,0.38241 0,0.21187 -0.103352,0.39274 Q 9.1718,4.72354 8.990932,4.82689 8.815232,4.93025 8.603359,4.93025 Z" />
    <path
       inkscape:connector-curvature="0"
       id="path20"
       style="font-style:normal;font-variant:normal;font-weight:normal;font-stretch:normal;font-size:10.58333302px;line-height:1.25;font-family:'Cascadia Code';-inkscape-font-specification:'Cascadia Code, Normal';font-variant-ligatures:normal;font-variant-caps:normal;font-variant-numeric:normal;font-feature-settings:normal;text-align:start;letter-spacing:0px;word-spacing:0px;writing-mode:lr-tb;text-anchor:start;fill:#FFF;fill-opacity:1;stroke:none;stroke-width:0.26458332"
       d="m 17.626065,0.4344 -2.52181,7.33805 h -1.209228 l 2.175577,-6.3252 H 13.326586 V 3.00788 H 12.241381 V 0.4344 Z" />
    <path
       inkscape:connector-curvature="0"
       id="path22"
       style="font-style:normal;font-variant:normal;font-weight:normal;font-stretch:normal;font-size:10.58333302px;line-height:1.25;font-family:'Cascadia Code';-inkscape-font-specification:'Cascadia Code, Normal';font-variant-ligatures:normal;font-variant-caps:normal;font-variant-numeric:normal;font-feature-settings:normal;text-align:start;letter-spacing:0px;word-spacing:0px;writing-mode:lr-tb;text-anchor:start;fill:#FFF;fill-opacity:1;stroke:none;stroke-width:0.26458332"
       d="m 20.88168,0.33104 q 0.821656,0 1.400432,0.33073 0.578776,0.33073 0.878499,0.96635 0.304891,0.63045 0.304891,1.52446 v 0.24804 q 0,2.10323 -1.069702,3.19877 -1.069702,1.09554 -3.250448,1.20407 L 19.041999,6.8216 q 1.648479,-0.0672 2.459798,-0.79581 0.81132,-0.73381 0.816488,-2.13941 h -0.09302 q -0.15503,0.56844 -0.61495,0.88367 -0.45992,0.31523 -1.131714,0.31523 -0.961181,0 -1.483113,-0.59428 -0.521932,-0.59428 -0.521932,-1.67949 0,-0.78031 0.279052,-1.33842 0.284221,-0.5581 0.821656,-0.84749 0.542602,-0.29456 1.307413,-0.29456 z m 0.06201,3.80339 q 0.656291,0 1.012858,-0.37207 0.361735,-0.37207 0.361735,-1.0542 0,-1.42627 -1.44694,-1.42627 -0.620117,0 -0.956014,0.40308 -0.335897,0.3979 -0.335897,1.12654 0,0.63562 0.3514,0.98185 0.356567,0.34107 1.012858,0.34107 z" />
    <path
       inkscape:connector-curvature="0"
       style="font-style:normal;font-variant:normal;font-weight:normal;font-stretch:normal;font-size:10.58333302px;line-height:1.25;font-family:'Cascadia Code';-inkscape-font-specification:'Cascadia Code, Normal';font-variant-ligatures:normal;font-variant-caps:normal;font-variant-numeric:normal;font-feature-settings:normal;text-align:start;letter-spacing:0px;word-spacing:0px;writing-mode:lr-tb;text-anchor:start;fill:#FFF;fill-opacity:1;stroke:none;stroke-width:0.26458332"
       d="m 27.165627,6.3459931 c -0.137805,0 -0.265274,0.034454 -0.382407,0.1033542 -0.117134,0.068905 -0.210151,0.1619197 -0.279051,0.2790534 -0.0689,0.117131 -0.103354,0.2446046 -0.103354,0.3824049 0,0.1294712 0.03168,0.2494783 0.0925,0.3607012 L 27.49067,6.4204072 c -0.101193,-0.048641 -0.209257,-0.074414 -0.325044,-0.074414 z m 0.668692,0.3973936 -1.000455,1.0547138 c 0.103116,0.050834 0.213397,0.077515 0.331763,0.077515 0.137803,0 0.265272,-0.034451 0.382405,-0.1033516 0.117134,-0.0689 0.210151,-0.1619197 0.279054,-0.2790533 0.0689,-0.1171337 0.103351,-0.2445994 0.103351,-0.382405 0,-0.1320985 -0.0328,-0.2543148 -0.09612,-0.3674189 z"
       id="path24" />
    <path
       inkscape:connector-curvature="0"
       id="path26"
       style="font-style:normal;font-variant:normal;font-weight:normal;font-stretch:normal;font-size:10.58333302px;line-height:1.25;font-family:'Cascadia Code';-inkscape-font-specification:'Cascadia Code, Normal';font-variant-ligatures:normal;font-variant-caps:normal;font-variant-numeric:normal;font-feature-settings:normal;text-align:start;letter-spacing:0px;word-spacing:0px;writing-mode:lr-tb;text-anchor:start;fill:#FFF;fill-opacity:1;stroke:none;stroke-width:0.26458332"
       d="m 34.803311,2.1914 q 0.568441,0 0.826823,0.30489 0.258382,0.30489 0.258382,0.98702 v 4.28914 h -1.09554 V 3.58666 q 0,-0.28939 -0.103353,-0.42892 -0.103353,-0.13952 -0.320394,-0.13952 -0.537435,0 -0.537435,0.74414 V 7.77245 H 32.901618 V 3.48331 q 0,-0.46509 -0.434082,-0.46509 -0.527099,0 -0.527099,0.74414 v 4.01009 h -1.09554 v -5.4777 h 0.971516 l 0.07235,0.68213 h 0.08268 q 0.03101,-0.39791 0.258382,-0.58911 0.232544,-0.19637 0.682129,-0.19637 0.3514,0 0.578776,0.20153 0.227376,0.19637 0.304891,0.58395 h 0.08785 Q 33.909311,2.64098 34.14702,2.41877 34.3899,2.1914 34.803311,2.1914 Z" />
    <path
       inkscape:connector-curvature="0"
       id="path28"
       style="font-style:normal;font-variant:normal;font-weight:normal;font-stretch:normal;font-size:10.58333302px;line-height:1.25;font-family:'Cascadia Code';-inkscape-font-specification:'Cascadia Code, Normal';font-variant-ligatures:normal;font-variant-caps:normal;font-variant-numeric:normal;font-feature-settings:normal;text-align:start;letter-spacing:0px;word-spacing:0px;writing-mode:lr-tb;text-anchor:start;fill:#FFF;fill-opacity:1;stroke:none;stroke-width:0.26458332"
       d="m 41.965665,7.65876 q -0.413412,0.11369 -0.800985,0.16537 -0.387573,0.0517 -0.831991,0.0517 -0.640787,0 -1.033528,-0.22737 Q 38.90642,7.42108 38.720385,6.94566 38.53435,6.47023 38.53435,5.70542 V 0.93052 H 36.922045 V 0.02101 h 2.707845 v 5.63274 q 0,0.46508 0.08268,0.72863 0.08785,0.25839 0.325562,0.38758 0.242879,0.12402 0.707967,0.12402 0.227376,0 0.485758,-0.0465 0.26355,-0.0465 0.609782,-0.14986 z" />
  </g>
</svg>
